# xmcd
#
# Track frame offsets:
#	150
#	19193
#	33425
#	57255
#	70385
#	83828
#	92378
#	104485
#	117303
#	137183
#	152020
#	162738
#	176433
#	201403
#	210053
#
# Disc length: 3008 seconds
#
# Revision: 0
# Processed by: cddbd v1.5.2PL0 Copyright (c) Steve Scherf et al.
# Submitted via: EasyCDDAExtractor 16.0.8.2
#
DISCID=cb0bbe0f
DTITLE=Μουσική Αιγαίου Πελάγους-Χίος 1
DYEAR=1900
DGENRE=Παραδοσιακή
TTITLE0=Άνευ ερμηνευτού - Syrtos. [Χριστόδ. Χάλαρης]
TTITLE1=Άγνωστος - Kalamotoutsikos
TTITLE2=Άνευ ερμηνευτού - Volissianos (Syrtos)
TTITLE3=Άγνωστος - Marmaro
TTITLE4=Άνευ ερμηνευτού - Pasvantikos
TTITLE5=Άγνωστος - Lament (Mesta)
TTITLE6=Άνευ ερμηνευτού - Syrtos (You are drunk again, Constantis)
TTITLE7=Άγνωστος - Wedding song (Pyrghi)
TTITLE8=Άνευ ερμηνευτού - Mastich ballos
TTITLE9=Άγνωστος - Praise to beauty (Evgonima)
TTITLE10=Άνευ ερμηνευτού - Pyrgousikos
TTITLE11=Άγνωστος - Tragouditos
TTITLE12=Άνευ ερμηνευτού - Tripatos
TTITLE13=Άγνωστος - Patounades
TTITLE14=Άνευ ερμηνευτού - Do balo
EXTD=
EXTT0=
EXTT1=
EXTT2=
EXTT3=
EXTT4=
EXTT5=
EXTT6=
EXTT7=
EXTT8=
EXTT9=
EXTT10=
EXTT11=
EXTT12=
EXTT13=
EXTT14=
PLAYORDER=
